<svg xmlns="http://www.w3.org/2000/svg" width="351" height="260" viewBox="0 0 351 260" fill="none">
<path d="M8.39558 146.83C15.6225 155.396 13.6014 157.974 8.02812 162.298C2.45488 166.623 2.82234 175.189 2.69984 184.836C2.57737 193.152 3.43476 308 3.67975 339.685C3.43475 371.37 2.6386 486.301 2.69981 494.534C2.82231 504.181 2.45485 512.747 8.02809 517.071C13.6014 521.396 15.6224 523.974 8.39555 532.539C1.16871 541.105 -1.89351 549.255 1.65867 562.145C5.21082 575.036 14.3363 576.117 19.4196 575.368C24.5028 574.703 30.1986 570.711 33.6283 567.468C37.058 564.225 38.5891 562.811 39.6915 564.89C40.8551 566.969 37.9154 581.023 27.2589 590.67C16.6023 600.317 8.88554 604.974 5.08835 624.434C1.2912 643.895 7.35437 658.199 14.0913 667.097C20.8282 676.079 38.1604 675.496 46.7958 675.912C55.4313 676.245 89.4833 675.912 93.1579 675.081C96.8326 674.249 98.2412 669.426 95.9752 664.768C93.7091 660.111 78.7655 638.239 79.2554 625.017C79.7454 611.794 86.2373 605.224 95.8527 606.97C105.468 608.717 111.164 617.948 112.695 624.351C114.226 630.755 113.859 633.167 113.859 633.167C113.859 633.167 113.246 642.148 109.143 645.89C105.101 649.716 102.651 648.469 100.63 643.479C98.6087 638.489 102.283 633.666 104.549 631.586C106.815 629.507 108.347 623.021 103.386 620.609C98.425 618.197 92.7292 622.355 92.1168 635.412C91.5043 648.469 96.2814 660.194 105.529 659.862C114.777 659.529 117.288 650.049 118.329 646.306C119.371 642.481 119.064 637.741 119.064 637.741C119.064 637.741 127.271 645.475 133.641 640.651C139.949 635.828 140.5 630.838 142.766 628.759C145.032 626.68 148.952 630.173 145.583 636.493C142.154 642.897 131.252 653.209 122.8 655.787C114.287 658.365 110.919 661.109 113.675 668.012C116.492 674.914 121.759 678.573 134.437 678.657C160.282 678.823 171.306 656.12 172.715 651.629C174.001 647.471 175.226 643.146 175.348 642.564C175.532 643.146 176.695 647.471 177.982 651.629C179.39 656.12 190.414 678.823 216.259 678.657C228.937 678.573 234.265 674.831 237.021 668.012C239.838 661.109 236.409 658.365 227.896 655.787C219.383 653.209 208.481 642.897 205.113 636.493C201.683 630.09 205.603 626.68 207.93 628.759C210.196 630.838 210.747 635.828 217.056 640.651C223.364 645.475 231.632 637.741 231.632 637.741C231.632 637.741 231.387 642.564 232.367 646.306C233.408 650.132 235.919 659.529 245.167 659.862C254.415 660.194 259.253 648.469 258.579 635.412C257.967 622.355 252.271 618.197 247.31 620.609C242.35 623.021 243.881 629.591 246.147 631.586C248.413 633.666 252.087 638.489 250.066 643.479C248.045 648.469 245.657 649.633 241.553 645.89C237.511 642.065 236.838 633.167 236.838 633.167C236.838 633.167 236.47 630.755 238.001 624.351C239.532 617.948 245.228 608.717 254.843 606.97C264.459 605.224 270.951 611.794 271.441 625.017C271.931 638.239 256.987 660.111 254.721 664.768C252.455 669.426 253.863 674.249 257.538 675.081C261.213 675.912 295.326 676.245 303.9 675.912C312.536 675.58 329.868 676.079 336.605 667.097C343.342 658.115 349.405 643.895 345.608 624.434C341.811 604.974 334.094 600.317 323.437 590.67C312.781 581.023 309.902 566.886 311.005 564.89C312.168 562.811 313.638 564.225 317.068 567.468C320.498 570.711 326.193 574.703 331.277 575.368C336.36 576.034 345.485 575.036 349.037 562.145C352.59 549.255 349.527 541.188 342.301 532.54C335.074 523.974 337.095 521.396 342.668 517.071C348.241 512.747 347.874 504.181 347.996 494.534C348.119 486.218 347.261 371.37 347.016 339.685C347.261 308 348.058 193.069 347.996 184.836C347.874 175.189 348.241 166.623 342.668 162.298C337.095 157.974 335.074 155.396 342.301 146.83C349.527 138.264 352.59 130.114 349.037 117.224C345.485 104.334 336.36 103.253 331.277 104.001C326.193 104.667 320.498 108.658 317.068 111.902C313.638 115.145 312.107 116.559 311.005 114.48C309.841 112.401 312.781 98.3462 323.437 88.6993C334.094 79.0525 341.811 74.3953 345.608 54.9352C349.405 35.4751 343.342 21.1711 336.605 12.2727C329.868 3.29104 312.536 3.8732 303.9 3.45742C295.265 3.12472 261.213 3.45742 257.538 4.28902C253.864 5.12063 252.455 9.94405 254.721 14.6012C256.987 19.2583 271.931 41.1302 271.441 54.3531C270.951 67.576 264.459 74.1458 254.843 72.3994C245.228 70.653 239.532 61.4219 238.001 55.0184C236.47 48.6148 236.838 46.2031 236.838 46.2031C236.838 46.2031 237.45 37.2215 241.553 33.4791C245.596 29.6536 248.045 30.9011 250.066 35.8909C252.087 40.8807 248.413 45.7041 246.147 47.7832C243.881 49.8623 242.35 56.349 247.31 58.7607C252.271 61.1724 257.967 57.0143 258.579 43.9577C259.192 30.9011 254.415 19.1752 245.167 19.5078C235.919 19.8405 233.408 29.321 232.367 33.0634C231.326 36.8888 231.632 41.6291 231.632 41.6291C231.632 41.6291 223.425 33.895 217.056 38.7184C210.747 43.5419 210.196 48.5317 207.93 50.6107C205.664 52.6898 201.744 49.1969 205.113 42.8765C208.543 36.473 219.444 26.1608 227.896 23.5828C236.409 21.0048 239.777 18.2604 237.021 11.3579C234.204 4.45534 228.937 0.796162 216.259 0.713031C190.414 0.546708 179.39 23.2501 177.982 27.741C176.695 31.8991 175.471 36.2235 175.348 36.8057C175.164 36.2235 174.001 31.8991 172.715 27.741C171.306 23.2501 160.282 0.546706 134.437 0.713024C121.759 0.796153 116.431 4.53852 113.675 11.3579C110.858 18.2604 114.287 21.0048 122.8 23.5828C131.313 26.1608 142.215 36.473 145.583 42.8765C149.013 49.2801 145.093 52.6898 142.766 50.6107C140.5 48.5317 139.949 43.5419 133.641 38.7184C127.332 33.895 119.064 41.6291 119.064 41.6291C119.064 41.6291 119.309 36.8057 118.329 33.0634C117.288 29.2379 114.777 19.8405 105.529 19.5078C96.2815 19.1752 91.4431 30.9011 92.1168 43.9577C92.7293 57.0143 98.425 61.1724 103.386 58.7607C108.347 56.3489 106.815 49.7791 104.549 47.7832C102.283 45.7041 98.6088 40.8807 100.63 35.8909C102.651 30.9011 105.039 29.7368 109.143 33.4791C113.185 37.3046 113.859 46.2031 113.859 46.2031C113.859 46.2031 114.226 48.6148 112.695 55.0184C111.164 61.4219 105.468 70.653 95.8527 72.3994C86.2373 74.1458 79.7454 67.5759 79.2555 54.353C78.7655 41.1302 93.7092 19.2583 95.9752 14.6011C98.2413 9.94404 96.8327 5.12061 93.158 4.28901C89.4833 3.45741 55.3701 3.1247 46.7959 3.4574C38.1604 3.79004 20.8282 3.29102 14.0913 12.2726C7.35443 21.2542 1.29125 35.475 5.0884 54.9352C8.88558 74.3953 16.6023 79.0524 27.2589 88.6993C37.9154 98.3462 40.794 112.484 39.6915 114.48C38.5279 116.559 37.058 115.145 33.6283 111.902C30.1986 108.658 24.5029 104.667 19.4196 104.001C14.3363 103.336 5.21087 104.334 1.65871 117.224C-1.83223 130.114 1.16875 138.181 8.39558 146.83ZM10.1717 188.245C10.1717 188.245 14.7038 198.724 20.032 206.125C25.3603 213.527 27.7489 217.851 27.2589 228.33C26.7689 238.808 20.767 240.555 16.3574 236.896C11.9478 233.32 8.64054 224.172 7.35441 212.446C6.12953 200.803 10.1717 188.245 10.1717 188.245ZM10.1717 491.124C10.1717 491.124 6.1295 478.567 7.35439 466.841C8.64052 455.115 11.8865 446.05 16.3574 442.391C20.767 438.815 26.7689 440.478 27.2589 450.957C27.7488 461.435 25.3603 465.76 20.032 473.161C14.765 480.646 10.1717 491.124 10.1717 491.124ZM38.3441 665.267C38.3441 665.267 22.9105 668.677 15.6837 654.623C8.45682 640.485 12.2539 622.605 22.6655 611.96C33.0771 601.315 40.1815 590.088 43.0599 583.934C45.9997 577.78 45.8772 573.289 45.8772 570.878C45.8772 568.466 43.7336 563.642 43.7336 563.642C43.7336 563.642 53.349 561.896 54.7576 577.447C56.1663 592.916 46.2447 604.642 40.6714 612.708C35.0981 620.775 30.811 628.842 30.2598 642.481C29.7087 655.953 38.3441 665.267 38.3441 665.267ZM131.007 654.623C132.416 652.793 137.499 652.377 143.685 647.138C146.624 644.643 147.972 642.314 148.952 638.738C151.095 630.672 154.096 634.414 153.423 638.738C152.933 641.982 151.83 646.14 147.972 649.716C142.705 654.623 138.234 655.787 134.559 656.369C131.558 656.785 129.598 656.452 131.007 654.623ZM207.134 647.138C213.258 652.377 218.342 652.793 219.812 654.623C221.22 656.452 219.322 656.785 216.259 656.369C212.585 655.87 208.114 654.623 202.847 649.716C198.988 646.14 197.886 641.899 197.396 638.738C196.722 634.414 199.785 630.672 201.867 638.738C202.786 642.314 204.133 644.56 207.134 647.138ZM328.214 611.96C338.626 622.605 342.423 640.485 335.196 654.623C327.969 668.76 312.536 665.267 312.536 665.267C312.536 665.267 321.11 655.953 320.62 642.398C320.13 628.842 315.782 620.692 310.208 612.625C304.635 604.559 294.775 592.833 296.122 577.364C297.531 561.896 307.146 563.559 307.146 563.559C307.146 563.559 305.003 568.383 305.003 570.794C305.003 573.206 304.88 577.697 307.82 583.851C310.698 590.088 317.803 601.232 328.214 611.96ZM340.586 491.124C340.586 491.124 336.054 480.646 330.725 473.244C325.397 465.843 323.009 461.518 323.498 451.04C323.988 440.561 329.99 438.815 334.4 442.474C338.81 446.05 342.117 455.198 343.403 466.924C344.689 478.567 340.586 491.124 340.586 491.124ZM340.586 188.245C340.586 188.245 344.628 200.803 343.403 212.529C342.117 224.255 338.871 233.32 334.4 236.979C329.99 240.555 323.988 238.891 323.499 228.413C323.009 217.934 325.397 213.61 330.725 206.208C336.054 198.724 340.586 188.245 340.586 188.245ZM312.475 14.1023C312.475 14.1023 327.908 10.6925 335.135 24.7471C342.362 38.8847 338.565 56.7647 328.153 67.4096C317.742 78.0545 310.637 89.2815 307.759 95.4355C304.819 101.59 304.941 106.08 304.941 108.492C304.941 110.904 307.085 115.727 307.085 115.727C307.085 115.727 297.47 117.474 296.061 101.922C294.652 86.4539 304.574 74.728 310.147 66.6612C315.72 58.5944 320.008 50.5276 320.559 36.8889C321.11 23.4165 312.475 14.1023 312.475 14.1023ZM219.75 24.8303C218.342 26.6598 213.258 27.0756 207.073 32.3149C204.133 34.8098 202.786 37.1383 201.806 40.7143C199.662 48.7811 196.661 45.0388 197.335 40.7143C197.825 37.471 198.927 33.3128 202.786 29.7368C208.053 24.8302 212.524 23.666 216.198 23.0838C219.26 22.668 221.22 23.0007 219.75 24.8303ZM143.685 32.3149C137.56 27.0756 132.477 26.6598 131.007 24.8303C129.598 23.0007 131.497 22.668 134.559 23.0838C138.234 23.5828 142.705 24.8302 147.972 29.7368C151.83 33.3128 152.933 37.5542 153.423 40.7143C154.096 45.0388 151.034 48.7811 148.952 40.7143C147.972 37.1383 146.624 34.8098 143.685 32.3149ZM22.6043 67.4928C12.1928 56.8479 8.39559 38.9679 15.6224 24.8303C22.8493 10.6926 38.2829 14.1854 38.2829 14.1854C38.2829 14.1854 29.6475 23.4996 30.1987 37.0551C30.6886 50.6107 35.037 58.7607 40.6102 66.8275C46.1835 74.8943 56.0438 86.6202 54.6965 102.089C53.2878 117.557 43.6724 115.894 43.6724 115.894C43.6724 115.894 45.816 111.07 45.816 108.658C45.816 106.247 45.9385 101.756 42.9987 95.6018C40.059 89.3646 33.0159 78.1376 22.6043 67.4928ZM8.9468 125.457C10.1105 116.642 15.1325 108.908 26.7077 111.32C38.2217 113.731 39.6303 129.2 36.3231 136.767C33.0159 144.335 26.1565 141.757 25.2991 135.769C24.4417 129.782 29.2187 128.867 28.6063 124.376C27.9938 119.885 21.5019 120.218 18.9909 126.289C16.4798 132.277 16.0512 149.824 30.5049 150.406C44.9586 150.905 46.3672 130.281 46.3672 130.281C46.3672 130.281 49.7969 131.861 57.3912 124.792C64.9855 117.723 68.2927 108.243 66.5166 94.8533C64.7405 81.4641 51.6955 68.4907 45.7548 58.0122C39.814 47.5337 39.2628 28.7389 48.9394 18.2604C58.5548 7.7818 76.6832 11.8568 82.7464 12.6053C88.8096 13.2706 83.4814 17.595 79.9292 21.171C76.377 24.7471 64.6181 35.6414 64.0669 51.4424C63.5769 67.2433 70.3751 82.5452 84.5838 84.1254C98.7925 85.7055 108.775 74.4785 114.716 63.6672C120.657 52.8561 125.128 45.2883 131.558 44.7061C138.05 44.2072 140.194 52.773 137.744 56.7648C135.355 60.7566 127.761 59.8418 125.434 61.7545C123.168 63.6672 122.004 71.7341 132.416 70.9024C142.827 70.0708 143.195 55.9331 143.195 55.9331C143.195 55.9331 144.603 58.0122 147.911 57.8458C151.218 57.6795 156.117 55.9331 157.648 48.0327C159.18 40.1322 157.526 32.398 149.258 25.3292C141.051 18.2604 131.007 20.3394 128.251 19.1751C125.434 18.0109 123.964 14.518 128.496 10.6094C133.028 6.61757 141.909 5.7859 155.382 13.5201C168.795 21.2542 173.388 42.4607 173.388 42.4607C173.388 42.4607 168.305 37.6373 164.753 39.5501C161.201 41.4628 160.037 46.6189 162.977 53.1056C165.794 59.426 174.736 66.2454 175.348 66.6611C175.961 66.1622 184.902 59.426 187.719 53.1056C190.659 46.5358 189.496 41.3796 185.943 39.5501C182.391 37.6373 177.308 42.4607 177.308 42.4607C177.308 42.4607 181.84 21.3374 195.314 13.5201C208.726 5.78591 217.607 6.61757 222.2 10.6094C226.732 14.6012 225.262 18.0109 222.445 19.1751C219.628 20.3394 209.645 18.3435 201.438 25.3292C193.231 32.398 191.578 40.1322 193.048 48.0327C194.579 55.9331 199.54 57.6795 202.786 57.8458C206.093 58.0122 207.501 55.9331 207.501 55.9331C207.501 55.9331 207.869 70.0708 218.28 70.9024C228.692 71.7341 227.528 63.6673 225.262 61.7545C222.996 59.8418 215.402 60.7566 212.952 56.7648C210.564 52.773 212.707 44.2072 219.138 44.7061C225.63 45.2051 230.039 52.7729 235.98 63.6673C241.921 74.4785 251.965 85.7055 266.112 84.1254C280.321 82.5453 287.119 67.2433 286.629 51.4424C286.139 35.6414 274.319 24.7471 270.767 21.171C267.215 17.5951 261.887 13.2706 267.95 12.6053C274.013 11.94 292.141 7.78182 301.757 18.2604C311.372 28.7389 310.882 47.5337 304.941 58.0122C299.001 68.4907 285.956 81.3809 284.18 94.8534C282.403 108.243 285.711 117.723 293.305 124.792C300.899 131.861 304.329 130.281 304.329 130.281C304.329 130.281 305.738 150.905 320.191 150.406C334.645 149.907 334.278 132.36 331.705 126.289C329.194 120.301 322.702 119.885 322.09 124.376C321.477 128.867 326.255 129.699 325.397 135.769C324.54 141.757 317.68 144.335 314.373 136.767C311.066 129.2 312.475 113.731 323.988 111.32C335.502 108.908 340.586 116.642 341.749 125.457C342.913 134.273 341.382 143.836 335.012 149.408C328.704 154.897 323.988 153.4 323.988 153.4C323.988 153.4 322.702 158.057 328.031 161.301C333.359 164.544 335.747 162.298 337.401 168.536C339.055 174.69 336.911 183.505 330.419 195.231C323.927 206.957 314.557 210.533 311.433 220.18C308.249 229.827 310.025 239.806 318.293 246.875C326.499 253.944 333.849 253.445 335.625 263.424C337.401 273.404 331.338 277.728 329.317 284.797C327.296 291.866 351.487 312.324 331.215 327.793C323.131 333.947 317.925 321.555 320.926 317.397C323.988 313.239 327.234 320.391 328.643 319.144C330.052 317.979 329.133 307.75 322.151 308.748C313.638 309.996 311.495 320.64 314.189 329.955C315.537 334.529 317.986 337.938 320.865 339.768C317.925 341.681 315.475 345.007 314.189 349.581C311.556 358.895 313.699 369.54 322.151 370.788C329.133 371.786 329.99 361.64 328.643 360.392C327.234 359.228 323.927 366.297 320.926 362.139C317.864 357.981 323.07 345.589 331.215 351.743C351.487 367.212 327.296 387.67 329.317 394.739C331.338 401.807 337.401 406.132 335.625 416.111C333.849 426.091 326.499 425.592 318.293 432.661C310.086 439.73 308.31 449.709 311.433 459.356C314.618 469.003 323.988 472.579 330.419 484.305C336.911 496.031 339.055 504.763 337.401 511C335.747 517.154 333.359 514.992 328.031 518.235C322.702 521.479 323.988 526.136 323.988 526.136C323.988 526.136 328.704 524.556 335.012 530.128C341.321 535.617 342.852 545.263 341.749 554.079C340.586 562.894 335.564 570.628 323.988 568.216C312.474 565.805 311.066 550.336 314.373 542.769C317.68 535.201 324.54 537.779 325.397 543.766C326.254 549.754 321.477 550.669 322.09 555.16C322.702 559.651 329.194 559.318 331.705 553.247C334.216 547.259 334.645 529.712 320.191 529.13C305.738 528.631 304.329 549.255 304.329 549.255C304.329 549.255 300.899 547.675 293.305 554.744C285.711 561.813 282.403 571.293 284.18 584.683C285.956 598.072 299.001 611.045 304.941 621.524C310.882 632.002 311.433 650.797 301.757 661.276C292.141 671.754 274.013 667.679 267.95 666.931C261.887 666.265 267.215 661.941 270.767 658.365C274.319 654.789 286.078 643.895 286.629 628.094C287.119 612.293 280.321 596.991 266.112 595.411C251.904 593.831 241.921 605.058 235.98 615.869C230.039 626.68 225.569 634.248 219.138 634.83C212.646 635.329 210.502 626.763 212.952 622.771C215.341 618.779 222.935 619.694 225.262 617.781C227.528 615.869 228.692 607.802 218.28 608.634C207.869 609.465 207.501 623.603 207.501 623.603C207.501 623.603 206.093 621.524 202.786 621.69C199.478 621.856 194.579 623.603 193.048 631.503C191.517 639.404 193.17 647.138 201.438 654.207C209.645 661.276 219.689 659.197 222.445 660.361C225.262 661.525 226.732 665.018 222.2 668.927C217.668 672.918 208.788 673.75 195.314 666.016C181.901 658.282 177.308 637.075 177.308 637.075C177.308 637.075 182.391 641.899 185.943 639.986C189.496 638.073 190.659 632.917 187.719 626.43C184.902 620.11 175.96 613.291 175.348 612.875C174.736 613.374 165.794 620.11 162.977 626.43C160.037 633 161.201 638.156 164.753 639.986C168.305 641.899 173.388 637.075 173.388 637.075C173.388 637.075 168.856 658.199 155.382 666.016C141.97 673.75 133.089 672.918 128.496 668.927C123.964 664.935 125.434 661.525 128.251 660.361C131.068 659.197 141.051 661.192 149.258 654.207C157.465 647.138 159.118 639.404 157.648 631.503C156.117 623.603 151.156 621.856 147.911 621.69C144.603 621.524 143.195 623.603 143.195 623.603C143.195 623.603 142.827 609.465 132.416 608.634C122.004 607.802 123.168 615.869 125.434 617.781C127.7 619.694 135.294 618.779 137.744 622.771C140.132 626.763 137.989 635.329 131.558 634.83C125.066 634.331 120.657 626.763 114.716 615.869C108.775 605.057 98.7312 593.831 84.5837 595.411C70.375 596.991 63.5768 612.293 64.0668 628.094C64.5568 643.728 76.3157 654.623 79.8679 658.199C83.42 661.775 88.7483 666.099 82.6851 666.764C76.6219 667.43 58.4936 671.588 48.8782 661.109C39.2628 650.631 39.7528 631.836 45.6935 621.357C51.6342 610.879 64.6792 597.989 66.4553 584.516C68.2314 571.127 64.9242 561.646 57.3299 554.578C49.7356 547.509 46.3059 549.089 46.3059 549.089C46.3059 549.089 44.8973 528.465 30.4436 528.963C15.9899 529.462 16.3573 547.01 18.9296 553.081C21.4406 559.068 27.9326 559.484 28.545 554.993C29.1575 550.503 24.3804 549.671 25.2378 543.6C26.0952 537.612 32.9546 535.034 36.2618 542.602C39.569 550.17 38.1604 565.638 26.6464 568.05C15.1324 570.462 10.0491 562.728 8.88551 553.912C7.72184 545.097 9.25297 535.533 15.6224 529.961C21.9306 524.473 26.6464 525.97 26.6464 525.97C26.6464 525.97 27.9326 521.312 22.6043 518.069C17.276 514.826 14.8875 517.071 13.2339 510.834C11.5803 504.68 13.7238 495.865 20.2157 484.139C26.7077 472.413 36.0781 468.837 39.2015 459.19C42.3863 449.543 40.6102 439.563 32.3422 432.495C24.1354 425.426 16.7861 425.925 15.01 415.945C13.2339 405.966 19.2971 401.641 21.3182 394.572C23.3393 387.503 -0.852359 367.045 19.4196 351.577C27.5038 345.423 32.7096 357.814 29.7086 361.972C26.6464 366.131 23.4005 358.979 21.9918 360.226C20.5832 361.39 21.5019 371.619 28.4838 370.621C36.9967 369.374 39.1403 358.729 36.4456 349.415C35.0982 344.841 32.6484 341.431 29.7699 339.602C32.7097 337.689 35.1594 334.362 36.4456 329.788C39.0791 320.474 36.9355 309.829 28.4838 308.582C21.5019 307.584 20.6445 317.73 21.9919 318.977C23.4005 320.142 26.7077 313.073 29.7086 317.231C32.7709 321.389 27.5651 333.78 19.4196 327.626C-0.852354 312.158 23.3393 291.7 21.3182 284.631C19.2971 277.562 13.2339 273.238 15.01 263.258C16.7861 253.279 24.1354 253.778 32.3422 246.709C40.549 239.64 42.325 229.66 39.2015 220.013C36.0169 210.367 26.6464 206.791 20.2158 195.065C13.7239 183.339 11.5803 174.607 13.2339 168.369C14.8875 162.215 17.276 164.378 22.6043 161.134C27.9326 157.891 26.6464 153.234 26.6464 153.234C26.6464 153.234 21.9306 154.814 15.6224 149.242C9.31426 143.836 7.78316 134.273 8.9468 125.457Z" fill="#DA5AED"/>
</svg>