<svg xmlns="http://www.w3.org/2000/svg" width="30" height="30" viewBox="0 0 30 30" fill="none">
  <circle cx="15.3428" cy="15.1163" r="14.4776" fill="white"/>
  <path d="M18.9627 8.9629C18.9627 8.86691 18.9246 8.77485 18.8567 8.70697C18.7888 8.63909 18.6967 8.60096 18.6007 8.60096H16.791C15.8798 8.55557 14.9876 8.8727 14.3094 9.48307C13.6312 10.0934 13.2222 10.9474 13.1716 11.8584V13.8129H11.3619C11.2659 13.8129 11.1739 13.851 11.106 13.9189C11.0381 13.9868 11 14.0788 11 14.1748V16.0569C11 16.1529 11.0381 16.245 11.106 16.3129C11.1739 16.3807 11.2659 16.4189 11.3619 16.4189H13.1716V21.2689C13.1716 21.3649 13.2098 21.4569 13.2777 21.5248C13.3455 21.5927 13.4376 21.6308 13.5336 21.6308H15.7052C15.8012 21.6308 15.8933 21.5927 15.9612 21.5248C16.029 21.4569 16.0672 21.3649 16.0672 21.2689V16.4189H17.9637C18.0442 16.42 18.1228 16.3943 18.187 16.3458C18.2513 16.2973 18.2975 16.2288 18.3184 16.151L18.8396 14.2689C18.854 14.2155 18.856 14.1594 18.8453 14.1051C18.8346 14.0507 18.8116 13.9995 18.778 13.9555C18.7445 13.9114 18.7012 13.8757 18.6517 13.8509C18.6021 13.8262 18.5475 13.8132 18.4922 13.8129H16.0672V11.8584C16.0852 11.6792 16.1693 11.5132 16.3032 11.3927C16.437 11.2723 16.611 11.206 16.791 11.2069H18.6007C18.6967 11.2069 18.7888 11.1688 18.8567 11.1009C18.9246 11.033 18.9627 10.941 18.9627 10.845V8.9629Z" fill="#DA5AED"/>
</svg>