<svg xmlns="http://www.w3.org/2000/svg" width="30" height="30" viewBox="0 0 30 30" fill="none">
  <circle cx="15.3878" cy="15.1163" r="14.4776" fill="white"/>
  <path d="M18.2907 8.68038C18.9505 8.71071 19.4066 8.80767 19.828 8.97126C20.2276 9.12065 20.5893 9.35627 20.8875 9.66134C21.1926 9.95952 21.4282 10.3213 21.5776 10.7208C21.7412 11.1428 21.8381 11.5983 21.8684 12.2581C21.9058 13.076 21.9102 13.3642 21.9102 15.1387C21.9102 16.9132 21.9058 17.2013 21.8684 18.0193C21.8381 18.679 21.7412 19.1351 21.5776 19.557C21.4281 19.9564 21.1925 20.318 20.8875 20.616C20.5893 20.9211 20.2276 21.1567 19.828 21.3061C19.406 21.4697 18.9505 21.5666 18.2907 21.597C17.4728 21.6343 17.1852 21.6387 15.4102 21.6387C13.6351 21.6387 13.3469 21.6343 12.5296 21.597C11.8698 21.5666 11.4137 21.4697 10.9918 21.3061C10.5924 21.1566 10.2308 20.921 9.93282 20.616C9.62775 20.3178 9.39214 19.9561 9.24274 19.5565C9.07916 19.1345 8.9822 18.679 8.95186 18.0193C8.91449 17.2024 8.91016 16.9143 8.91016 15.1387C8.91016 13.3636 8.91449 13.0749 8.95186 12.2581C8.9822 11.5983 9.07916 11.1423 9.24274 10.7208C9.39214 10.3213 9.62775 9.95952 9.93282 9.66134C10.2308 9.35633 10.5924 9.12072 10.9918 8.97126C11.4143 8.80767 11.8698 8.71071 12.5296 8.68038C13.3464 8.64301 13.6346 8.63867 15.4102 8.63867C17.1852 8.63867 17.4739 8.64301 18.2907 8.68038ZM15.4102 10.0833C13.6552 10.0833 13.3865 10.0871 12.5951 10.1234C12.093 10.1461 11.7918 10.21 11.515 10.3178C11.2794 10.4099 11.1294 10.5074 10.9539 10.6824C10.7784 10.8579 10.6809 11.0079 10.5893 11.2435C10.4821 11.5198 10.4176 11.8215 10.3949 12.3236C10.3586 13.115 10.3548 13.3837 10.3548 15.1387C10.3548 16.8937 10.3586 17.1623 10.3949 17.9537C10.4176 18.4558 10.4815 18.757 10.5893 19.0333C10.6814 19.2694 10.7789 19.4195 10.9539 19.595C11.1294 19.7705 11.2794 19.868 11.515 19.9595C11.7913 20.0668 12.093 20.1312 12.5951 20.154C13.387 20.1903 13.6557 20.194 15.4102 20.194C17.1652 20.194 17.4333 20.1903 18.2252 20.154C18.7273 20.1312 19.0285 20.0673 19.3053 19.9595C19.5409 19.8674 19.6909 19.7699 19.8664 19.595C20.0419 19.4195 20.1394 19.2694 20.231 19.0338C20.3382 18.7575 20.4027 18.4558 20.4254 17.9537C20.4617 17.1618 20.4655 16.8931 20.4655 15.1387C20.4655 13.3842 20.4617 13.1155 20.4254 12.3236C20.4027 11.8215 20.3388 11.5203 20.231 11.2441C20.1544 11.0313 20.0296 10.839 19.8664 10.6824C19.7098 10.5192 19.5176 10.3944 19.3047 10.3178C19.0285 10.2106 18.7268 10.1461 18.2247 10.1234C17.4333 10.0871 17.1646 10.0833 15.4096 10.0833H15.4102ZM15.4102 18.5089C14.5163 18.5089 13.6591 18.1538 13.027 17.5218C12.395 16.8898 12.0399 16.0325 12.0399 15.1387C12.0399 14.2448 12.395 13.3876 13.027 12.7555C13.6591 12.1235 14.5163 11.7684 15.4102 11.7684C16.304 11.7684 17.1612 12.1235 17.7933 12.7555C18.4253 13.3876 18.7804 14.2448 18.7804 15.1387C18.7804 16.0325 18.4253 16.8898 17.7933 17.5218C17.1612 18.1538 16.304 18.5089 15.4102 18.5089ZM15.4102 17.0648C15.921 17.0648 16.4109 16.8619 16.7722 16.5007C17.1334 16.1395 17.3363 15.6495 17.3363 15.1387C17.3363 14.6278 17.1334 14.1379 16.7722 13.7767C16.4109 13.4154 15.921 13.2125 15.4102 13.2125C14.8993 13.2125 14.4094 13.4154 14.0482 13.7767C13.6869 14.1379 13.484 14.6278 13.484 15.1387C13.484 15.6495 13.6869 16.1395 14.0482 16.5007C14.4094 16.8619 14.8993 17.0648 15.4102 17.0648ZM18.7804 12.4905C18.5888 12.4905 18.4051 12.4144 18.2697 12.2789C18.1342 12.1434 18.0581 11.9597 18.0581 11.7682C18.0581 11.5766 18.1342 11.3929 18.2697 11.2574C18.4051 11.1219 18.5888 11.0458 18.7804 11.0458C18.972 11.0458 19.1557 11.1219 19.2912 11.2574C19.4266 11.3929 19.5027 11.5766 19.5027 11.7682C19.5027 11.9597 19.4266 12.1434 19.2912 12.2789C19.1557 12.4144 18.972 12.4905 18.7804 12.4905Z" fill="#DA5AED"/>
</svg>