<svg xmlns="http://www.w3.org/2000/svg" width="29" height="30" viewBox="0 0 29 30" fill="none">
  <circle cx="14.4776" cy="15.1163" r="14.4776" fill="white"/>
  <path d="M19.4945 10.5871C18.5715 10.1709 17.5822 9.86324 16.5477 9.6883C16.5385 9.68653 16.5289 9.68767 16.5204 9.69156C16.5118 9.69546 16.5047 9.7019 16.5 9.71002C16.3733 9.93261 16.2322 10.2228 16.1333 10.452C15.036 10.2881 13.9205 10.2881 12.8233 10.452C12.7131 10.198 12.5889 9.95024 12.4511 9.71002C12.4464 9.70181 12.4394 9.69521 12.4309 9.69111C12.4224 9.68702 12.4128 9.68562 12.4035 9.6871C11.3695 9.86203 10.3802 10.1697 9.45666 10.5865C9.44872 10.5899 9.44198 10.5955 9.43736 10.6028C7.56009 13.3626 7.04554 16.0542 7.29829 18.7121C7.29899 18.7186 7.30102 18.7249 7.30423 18.7306C7.30744 18.7363 7.31179 18.7413 7.31699 18.7453C8.4127 19.543 9.63482 20.1507 10.9322 20.5429C10.9412 20.5457 10.9509 20.5457 10.9599 20.5429C10.969 20.5401 10.977 20.5346 10.9828 20.5272C11.2615 20.1532 11.5101 19.7581 11.7224 19.3431C11.7351 19.3189 11.723 19.29 11.6977 19.2803C11.308 19.1336 10.9304 18.9565 10.5684 18.7507C10.5619 18.747 10.5564 18.7417 10.5525 18.7353C10.5485 18.729 10.5462 18.7218 10.5457 18.7143C10.5452 18.7068 10.5466 18.6993 10.5497 18.6925C10.5529 18.6857 10.5576 18.6798 10.5636 18.6753C10.6396 18.6192 10.7156 18.5607 10.788 18.5022C10.7945 18.4969 10.8024 18.4935 10.8107 18.4925C10.819 18.4914 10.8274 18.4927 10.8351 18.4961C13.204 19.5602 15.7695 19.5602 18.1107 18.4961C18.1183 18.4925 18.1268 18.491 18.1353 18.492C18.1437 18.493 18.1517 18.4963 18.1583 18.5015C18.2307 18.5607 18.3061 18.6192 18.3827 18.6753C18.3887 18.6797 18.3936 18.6855 18.3968 18.6923C18.4 18.699 18.4015 18.7065 18.4012 18.714C18.4008 18.7214 18.3986 18.7287 18.3948 18.7351C18.3909 18.7415 18.3855 18.7469 18.3791 18.7507C18.0184 18.9582 17.6431 19.1337 17.2492 19.2797C17.2432 19.2819 17.2377 19.2854 17.2331 19.2899C17.2285 19.2944 17.2249 19.2998 17.2225 19.3058C17.2202 19.3118 17.2192 19.3182 17.2195 19.3246C17.2198 19.3311 17.2215 19.3373 17.2245 19.3431C17.4417 19.7575 17.6902 20.152 17.9635 20.5266C17.9691 20.5343 17.9771 20.54 17.9861 20.5431C17.9952 20.5461 18.005 20.5462 18.0141 20.5435C19.3137 20.1524 20.5378 19.5444 21.6347 18.7453C21.6401 18.7415 21.6446 18.7367 21.6479 18.7311C21.6512 18.7254 21.6533 18.7192 21.6541 18.7127C21.9557 15.6398 21.1485 12.9699 19.5132 10.604C19.5092 10.5963 19.5025 10.5903 19.4945 10.5871ZM12.0765 17.0936C11.3635 17.0936 10.7753 16.4487 10.7753 15.6579C10.7753 14.8665 11.352 14.2222 12.0765 14.2222C12.8064 14.2222 13.3891 14.8719 13.3777 15.6579C13.3777 16.4493 12.801 17.0936 12.0765 17.0936ZM16.8873 17.0936C16.1737 17.0936 15.5861 16.4487 15.5861 15.6579C15.5861 14.8665 16.1622 14.2222 16.8873 14.2222C17.6172 14.2222 18.1999 14.8719 18.1885 15.6579C18.1885 16.4493 17.6178 17.0936 16.8873 17.0936Z" fill="#DA5AED"/>
</svg>