<svg xmlns="http://www.w3.org/2000/svg" width="30" height="30" viewBox="0 0 30 30" fill="none">
  <circle cx="15.2979" cy="15.1163" r="14.4776" fill="white"/>
  <path d="M20.5514 10.0825C20.5514 10.0825 21.7232 9.62551 21.6252 10.7352C21.5929 11.1921 21.3 12.7916 21.072 14.5214L20.2908 19.6458C20.2908 19.6458 20.2257 20.3966 19.6396 20.5272C19.0539 20.6575 18.175 20.0702 18.0121 19.9396C17.8818 19.8416 15.5708 18.3727 14.757 17.6549C14.529 17.4588 14.2684 17.0673 14.7896 16.6104L18.2072 13.3463C18.5978 12.9548 18.9884 12.0409 17.3609 13.1505L12.8035 16.2511C12.8035 16.2511 12.2826 16.5778 11.3062 16.284L9.1901 15.631C9.1901 15.631 8.40891 15.1415 9.74356 14.652C12.9989 13.1179 17.0029 11.5513 20.5508 10.0825H20.5514Z" fill="#DA5AED"/>
</svg>