<svg xmlns="http://www.w3.org/2000/svg" width="30" height="30" viewBox="0 0 30 30" fill="none">
  <circle cx="15.4327" cy="15.1163" r="14.4776" fill="white"/>
  <path d="M22.4548 10.8559C21.9511 11.0791 21.41 11.23 20.8412 11.2981C21.4281 10.9469 21.8673 10.3942 22.0766 9.74298C21.5252 10.0705 20.9216 10.3011 20.2922 10.4246C19.869 9.97273 19.3084 9.6732 18.6975 9.57255C18.0866 9.4719 17.4595 9.57576 16.9137 9.868C16.3678 10.1602 15.9337 10.6245 15.6788 11.1888C15.4239 11.753 15.3623 12.3856 15.5038 12.9884C14.3864 12.9323 13.2933 12.6419 12.2954 12.136C11.2976 11.6301 10.4172 10.92 9.71153 10.0518C9.47023 10.4681 9.33149 10.9507 9.33149 11.4646C9.33122 11.9273 9.44516 12.3829 9.66319 12.791C9.88123 13.199 10.1966 13.547 10.5814 13.804C10.1352 13.7898 9.69878 13.6692 9.30857 13.4523V13.4885C9.30852 14.1374 9.53299 14.7663 9.94388 15.2686C10.3548 15.7709 10.9268 16.1155 11.5628 16.244C11.1489 16.3561 10.7149 16.3726 10.2936 16.2923C10.4731 16.8507 10.8227 17.3389 11.2934 17.6887C11.7642 18.0385 12.3325 18.2324 12.9189 18.2431C11.9235 19.0246 10.6941 19.4485 9.42861 19.4466C9.20444 19.4467 8.98045 19.4336 8.75781 19.4074C10.0424 20.2333 11.5377 20.6717 13.0649 20.67C18.2346 20.67 21.0608 16.3882 21.0608 12.6747C21.0608 12.5541 21.0578 12.4322 21.0523 12.3116C21.602 11.914 22.0766 11.4217 22.4536 10.8578L22.4548 10.8559Z" fill="#DA5AED"/>
</svg>